<mxfile host="Electron" modified="2023-10-04T04:10:30.896Z" agent="Mozilla/5.0 (Macintosh; Intel Mac OS X 10_15_7) AppleWebKit/537.36 (KHTML, like Gecko) draw.io/22.0.2 Chrome/114.0.5735.289 Electron/25.8.4 Safari/537.36" etag="UBHy2SEGk8K5HIXp6g_v" version="22.0.2" type="device" pages="2">
  <diagram id="5C3CkBCD9xc0T-T-1LAS" name="centralized">
    <mxGraphModel dx="1114" dy="824" grid="1" gridSize="10" guides="1" tooltips="1" connect="1" arrows="1" fold="1" page="1" pageScale="1" pageWidth="900" pageHeight="700" math="0" shadow="0">
      <root>
        <mxCell id="0" />
        <mxCell id="1" parent="0" />
        <mxCell id="iU3-OYsmjuCID42y-KTL-5" value="" style="group;strokeWidth=6;" parent="1" vertex="1" connectable="0">
          <mxGeometry x="329" y="30" width="243" height="178" as="geometry" />
        </mxCell>
        <mxCell id="iU3-OYsmjuCID42y-KTL-2" value="&lt;font style=&quot;font-size: 26px; font-weight: normal;&quot;&gt;server&lt;/font&gt;" style="ellipse;shape=cloud;whiteSpace=wrap;html=1;fillColor=none;strokeWidth=6;fontSize=22;fontFamily=Source Sans Pro;fontSource=https%3A%2F%2Ffonts.googleapis.com%2Fcss%3Ffamily%3DSource%2BSans%2BPro;labelPosition=center;verticalLabelPosition=top;align=center;verticalAlign=bottom;fontStyle=1;spacingBottom=-15;" parent="iU3-OYsmjuCID42y-KTL-5" vertex="1">
          <mxGeometry width="243" height="178" as="geometry" />
        </mxCell>
        <mxCell id="iU3-OYsmjuCID42y-KTL-1" value="" style="sketch=0;outlineConnect=0;fontColor=#232F3E;gradientColor=none;fillColor=#232F3D;strokeColor=none;dashed=0;verticalLabelPosition=bottom;verticalAlign=top;align=center;html=1;fontSize=12;fontStyle=0;aspect=fixed;pointerEvents=1;shape=mxgraph.aws4.traditional_server;strokeWidth=6;" parent="iU3-OYsmjuCID42y-KTL-5" vertex="1">
          <mxGeometry x="60" y="56" width="45" height="78" as="geometry" />
        </mxCell>
        <mxCell id="iU3-OYsmjuCID42y-KTL-3" value="repository" style="strokeWidth=6;html=1;shape=mxgraph.flowchart.database;whiteSpace=wrap;fillColor=none;fontFamily=Source Sans Pro;fontSource=https%3A%2F%2Ffonts.googleapis.com%2Fcss%3Ffamily%3DSource%2BSans%2BPro;fontSize=16;" parent="iU3-OYsmjuCID42y-KTL-5" vertex="1">
          <mxGeometry x="120" y="50" width="80" height="90" as="geometry" />
        </mxCell>
        <mxCell id="jVeY-0ma-f2Et0YJ2FjW-2" style="orthogonalLoop=1;jettySize=auto;html=1;exitX=0.5;exitY=0;exitDx=0;exitDy=0;exitPerimeter=0;entryX=0.13;entryY=0.77;entryDx=0;entryDy=0;entryPerimeter=0;fontFamily=Source Sans Pro;fontSource=https%3A%2F%2Ffonts.googleapis.com%2Fcss%3Ffamily%3DSource%2BSans%2BPro;fontSize=22;strokeColor=#F6D06C;targetPerimeterSpacing=-31;sourcePerimeterSpacing=0;strokeWidth=6;shadow=0;sketch=0;startArrow=classic;startFill=1;curved=1;endSize=6;" parent="1" source="iU3-OYsmjuCID42y-KTL-6" target="iU3-OYsmjuCID42y-KTL-2" edge="1">
          <mxGeometry relative="1" as="geometry">
            <Array as="points">
              <mxPoint x="160" y="190" />
            </Array>
          </mxGeometry>
        </mxCell>
        <mxCell id="iU3-OYsmjuCID42y-KTL-6" value="dev 1" style="shape=umlActor;verticalLabelPosition=bottom;verticalAlign=top;html=1;outlineConnect=0;strokeWidth=6;fontFamily=Source Sans Pro;fontSource=https%3A%2F%2Ffonts.googleapis.com%2Fcss%3Ffamily%3DSource%2BSans%2BPro;fontSize=22;fillColor=none;" parent="1" vertex="1">
          <mxGeometry x="113" y="450" width="75" height="150" as="geometry" />
        </mxCell>
        <mxCell id="jVeY-0ma-f2Et0YJ2FjW-3" style="edgeStyle=none;curved=1;sketch=0;orthogonalLoop=1;jettySize=auto;html=1;exitX=0.5;exitY=0;exitDx=0;exitDy=0;exitPerimeter=0;entryX=0.96;entryY=0.7;entryDx=0;entryDy=0;entryPerimeter=0;shadow=0;strokeColor=#F6D06C;strokeWidth=6;fontFamily=Source Sans Pro;fontSource=https%3A%2F%2Ffonts.googleapis.com%2Fcss%3Ffamily%3DSource%2BSans%2BPro;fontSize=22;startArrow=classic;startFill=1;endSize=6;sourcePerimeterSpacing=0;targetPerimeterSpacing=-31;" parent="1" source="iU3-OYsmjuCID42y-KTL-7" target="iU3-OYsmjuCID42y-KTL-2" edge="1">
          <mxGeometry relative="1" as="geometry">
            <Array as="points">
              <mxPoint x="751" y="230" />
            </Array>
          </mxGeometry>
        </mxCell>
        <mxCell id="iU3-OYsmjuCID42y-KTL-7" value="dev 1" style="shape=umlActor;verticalLabelPosition=bottom;verticalAlign=top;html=1;outlineConnect=0;strokeWidth=6;fontFamily=Source Sans Pro;fontSource=https%3A%2F%2Ffonts.googleapis.com%2Fcss%3Ffamily%3DSource%2BSans%2BPro;fontSize=22;fillColor=none;" parent="1" vertex="1">
          <mxGeometry x="713" y="440" width="75" height="150" as="geometry" />
        </mxCell>
      </root>
    </mxGraphModel>
  </diagram>
  <diagram id="kN6Wds6x8saXRwwgsS6m" name="decentralized">
    <mxGraphModel dx="1114" dy="824" grid="1" gridSize="10" guides="1" tooltips="1" connect="1" arrows="1" fold="1" page="1" pageScale="1" pageWidth="900" pageHeight="700" math="0" shadow="0">
      <root>
        <mxCell id="0" />
        <mxCell id="1" parent="0" />
        <mxCell id="Ko9qV1Bql5ossG1LZ4Rf-1" value="" style="group;strokeWidth=6;" parent="1" vertex="1" connectable="0">
          <mxGeometry x="329" y="30" width="243" height="178" as="geometry" />
        </mxCell>
        <mxCell id="Ko9qV1Bql5ossG1LZ4Rf-2" value="&lt;font style=&quot;font-size: 26px; font-weight: normal;&quot;&gt;server&lt;/font&gt;" style="ellipse;shape=cloud;whiteSpace=wrap;html=1;fillColor=none;strokeWidth=6;fontSize=22;fontFamily=Source Sans Pro;fontSource=https%3A%2F%2Ffonts.googleapis.com%2Fcss%3Ffamily%3DSource%2BSans%2BPro;labelPosition=center;verticalLabelPosition=top;align=center;verticalAlign=bottom;fontStyle=1;spacingBottom=-15;" parent="Ko9qV1Bql5ossG1LZ4Rf-1" vertex="1">
          <mxGeometry width="243" height="178" as="geometry" />
        </mxCell>
        <mxCell id="Ko9qV1Bql5ossG1LZ4Rf-3" value="" style="sketch=0;outlineConnect=0;fontColor=#232F3E;gradientColor=none;fillColor=#232F3D;strokeColor=none;dashed=0;verticalLabelPosition=bottom;verticalAlign=top;align=center;html=1;fontSize=12;fontStyle=0;aspect=fixed;pointerEvents=1;shape=mxgraph.aws4.traditional_server;strokeWidth=6;" parent="Ko9qV1Bql5ossG1LZ4Rf-1" vertex="1">
          <mxGeometry x="60" y="56" width="45" height="78" as="geometry" />
        </mxCell>
        <mxCell id="Ko9qV1Bql5ossG1LZ4Rf-4" value="repository" style="strokeWidth=6;html=1;shape=mxgraph.flowchart.database;whiteSpace=wrap;fillColor=none;fontFamily=Source Sans Pro;fontSource=https%3A%2F%2Ffonts.googleapis.com%2Fcss%3Ffamily%3DSource%2BSans%2BPro;fontSize=16;" parent="Ko9qV1Bql5ossG1LZ4Rf-1" vertex="1">
          <mxGeometry x="120" y="50" width="80" height="90" as="geometry" />
        </mxCell>
        <mxCell id="Ko9qV1Bql5ossG1LZ4Rf-5" style="orthogonalLoop=1;jettySize=auto;html=1;exitX=1;exitY=0.15;exitDx=0;exitDy=0;exitPerimeter=0;entryX=0.13;entryY=0.77;entryDx=0;entryDy=0;entryPerimeter=0;fontFamily=Source Sans Pro;fontSource=https%3A%2F%2Ffonts.googleapis.com%2Fcss%3Ffamily%3DSource%2BSans%2BPro;fontSize=22;strokeColor=#F6D06C;targetPerimeterSpacing=-31;sourcePerimeterSpacing=0;strokeWidth=6;shadow=0;sketch=0;startArrow=classic;startFill=1;curved=1;endSize=6;" parent="1" source="1uVXN5OUpsWPDfWUP_77-1" target="Ko9qV1Bql5ossG1LZ4Rf-2" edge="1">
          <mxGeometry relative="1" as="geometry">
            <Array as="points">
              <mxPoint x="300" y="190" />
            </Array>
          </mxGeometry>
        </mxCell>
        <mxCell id="1uVXN5OUpsWPDfWUP_77-7" style="edgeStyle=orthogonalEdgeStyle;curved=1;sketch=0;orthogonalLoop=1;jettySize=auto;html=1;exitX=0.5;exitY=0;exitDx=0;exitDy=0;exitPerimeter=0;entryX=0;entryY=0.15;entryDx=0;entryDy=0;entryPerimeter=0;shadow=0;strokeColor=#6c8ebf;strokeWidth=6;fontFamily=Source Sans Pro;fontSource=https%3A%2F%2Ffonts.googleapis.com%2Fcss%3Ffamily%3DSource%2BSans%2BPro;fontSize=22;startArrow=classic;startFill=1;endSize=6;sourcePerimeterSpacing=0;targetPerimeterSpacing=-31;fillColor=#dae8fc;" parent="1" source="Ko9qV1Bql5ossG1LZ4Rf-6" target="1uVXN5OUpsWPDfWUP_77-1" edge="1">
          <mxGeometry relative="1" as="geometry">
            <Array as="points">
              <mxPoint x="151" y="400" />
              <mxPoint x="230" y="400" />
            </Array>
          </mxGeometry>
        </mxCell>
        <mxCell id="Ko9qV1Bql5ossG1LZ4Rf-6" value="dev 1" style="shape=umlActor;verticalLabelPosition=bottom;verticalAlign=top;html=1;outlineConnect=0;strokeWidth=6;fontFamily=Source Sans Pro;fontSource=https%3A%2F%2Ffonts.googleapis.com%2Fcss%3Ffamily%3DSource%2BSans%2BPro;fontSize=22;fillColor=none;" parent="1" vertex="1">
          <mxGeometry x="113" y="450" width="75" height="150" as="geometry" />
        </mxCell>
        <mxCell id="Ko9qV1Bql5ossG1LZ4Rf-7" style="edgeStyle=none;curved=1;sketch=0;orthogonalLoop=1;jettySize=auto;html=1;exitX=0;exitY=0.15;exitDx=0;exitDy=0;exitPerimeter=0;entryX=0.96;entryY=0.7;entryDx=0;entryDy=0;entryPerimeter=0;shadow=0;strokeColor=#F6D06C;strokeWidth=6;fontFamily=Source Sans Pro;fontSource=https%3A%2F%2Ffonts.googleapis.com%2Fcss%3Ffamily%3DSource%2BSans%2BPro;fontSize=22;startArrow=classic;startFill=1;endSize=6;sourcePerimeterSpacing=0;targetPerimeterSpacing=-31;" parent="1" source="1uVXN5OUpsWPDfWUP_77-2" target="Ko9qV1Bql5ossG1LZ4Rf-2" edge="1">
          <mxGeometry relative="1" as="geometry">
            <Array as="points">
              <mxPoint x="590" y="260" />
            </Array>
          </mxGeometry>
        </mxCell>
        <mxCell id="1uVXN5OUpsWPDfWUP_77-8" style="edgeStyle=orthogonalEdgeStyle;curved=1;sketch=0;orthogonalLoop=1;jettySize=auto;html=1;exitX=0.5;exitY=0;exitDx=0;exitDy=0;exitPerimeter=0;entryX=1;entryY=0.15;entryDx=0;entryDy=0;entryPerimeter=0;shadow=0;strokeColor=#6c8ebf;strokeWidth=6;fontFamily=Source Sans Pro;fontSource=https%3A%2F%2Ffonts.googleapis.com%2Fcss%3Ffamily%3DSource%2BSans%2BPro;fontSize=22;startArrow=classic;startFill=1;endSize=6;sourcePerimeterSpacing=0;targetPerimeterSpacing=-31;fillColor=#dae8fc;" parent="1" source="Ko9qV1Bql5ossG1LZ4Rf-8" target="1uVXN5OUpsWPDfWUP_77-2" edge="1">
          <mxGeometry relative="1" as="geometry">
            <Array as="points">
              <mxPoint x="751" y="400" />
              <mxPoint x="660" y="400" />
            </Array>
          </mxGeometry>
        </mxCell>
        <mxCell id="Ko9qV1Bql5ossG1LZ4Rf-8" value="dev 2" style="shape=umlActor;verticalLabelPosition=bottom;verticalAlign=top;html=1;outlineConnect=0;strokeWidth=6;fontFamily=Source Sans Pro;fontSource=https%3A%2F%2Ffonts.googleapis.com%2Fcss%3Ffamily%3DSource%2BSans%2BPro;fontSize=22;fillColor=none;" parent="1" vertex="1">
          <mxGeometry x="713" y="440" width="75" height="150" as="geometry" />
        </mxCell>
        <mxCell id="1uVXN5OUpsWPDfWUP_77-1" value="repository" style="strokeWidth=6;html=1;shape=mxgraph.flowchart.database;whiteSpace=wrap;fillColor=none;fontFamily=Source Sans Pro;fontSource=https%3A%2F%2Ffonts.googleapis.com%2Fcss%3Ffamily%3DSource%2BSans%2BPro;fontSize=16;" parent="1" vertex="1">
          <mxGeometry x="230" y="510" width="80" height="90" as="geometry" />
        </mxCell>
        <mxCell id="1uVXN5OUpsWPDfWUP_77-2" value="repository" style="strokeWidth=6;html=1;shape=mxgraph.flowchart.database;whiteSpace=wrap;fillColor=none;fontFamily=Source Sans Pro;fontSource=https%3A%2F%2Ffonts.googleapis.com%2Fcss%3Ffamily%3DSource%2BSans%2BPro;fontSize=16;" parent="1" vertex="1">
          <mxGeometry x="580" y="500" width="80" height="90" as="geometry" />
        </mxCell>
      </root>
    </mxGraphModel>
  </diagram>
</mxfile>
